<svg width="15" height="15" viewBox="0 0 15 15" fill="none" xmlns="http://www.w3.org/2000/svg">
<g clip-path="url(#clip0_0_186)">
<path d="M5.60313 11.25C5.52883 11.7714 5.26888 12.2485 4.87105 12.5937C4.47321 12.9389 3.9642 13.1289 3.4375 13.1289C2.9108 13.1289 2.40179 12.9389 2.00395 12.5937C1.60612 12.2485 1.34618 11.7714 1.27188 11.25H0.625V3.75C0.625 3.58424 0.690848 3.42527 0.808058 3.30806C0.925268 3.19085 1.08424 3.125 1.25 3.125H10C10.1658 3.125 10.3247 3.19085 10.4419 3.30806C10.5592 3.42527 10.625 3.58424 10.625 3.75V5H12.5L14.375 7.535V11.25H13.1031C13.0288 11.7714 12.7689 12.2485 12.371 12.5937C11.9732 12.9389 11.4642 13.1289 10.9375 13.1289C10.4108 13.1289 9.90179 12.9389 9.50395 12.5937C9.10612 12.2485 8.84618 11.7714 8.77188 11.25H5.60313ZM9.375 4.375H1.875V9.40625C2.1216 9.1545 2.42538 8.96605 2.76047 8.85695C3.09557 8.74784 3.45206 8.72132 3.79961 8.77962C4.14716 8.83792 4.47548 8.97933 4.75663 9.19181C5.03778 9.4043 5.26343 9.68156 5.41438 10H8.96062C9.06563 9.77938 9.20625 9.57875 9.375 9.40625V4.375ZM10.625 8.125H13.125V7.94688L11.87 6.25H10.625V8.125ZM10.9375 11.875C11.1862 11.875 11.4248 11.7762 11.6006 11.6003C11.7765 11.4244 11.8753 11.1859 11.8753 10.9372C11.8753 10.6885 11.7765 10.4499 11.6006 10.2741C11.4248 10.0982 11.1862 9.99937 10.9375 9.99937C10.6888 9.99937 10.4502 10.0982 10.2744 10.2741C10.0985 10.4499 9.99969 10.6885 9.99969 10.9372C9.99969 11.1859 10.0985 11.4244 10.2744 11.6003C10.4502 11.7762 10.6888 11.875 10.9375 11.875ZM4.375 10.9375C4.375 10.8144 4.35075 10.6925 4.30364 10.5787C4.25652 10.465 4.18747 10.3616 4.10041 10.2746C4.01336 10.1875 3.91001 10.1185 3.79627 10.0714C3.68252 10.0242 3.56061 10 3.4375 10C3.31439 10 3.19248 10.0242 3.07873 10.0714C2.96499 10.1185 2.86164 10.1875 2.77459 10.2746C2.68753 10.3616 2.61848 10.465 2.57136 10.5787C2.52425 10.6925 2.5 10.8144 2.5 10.9375C2.5 11.1861 2.59877 11.4246 2.77459 11.6004C2.9504 11.7762 3.18886 11.875 3.4375 11.875C3.68614 11.875 3.9246 11.7762 4.10041 11.6004C4.27623 11.4246 4.375 11.1861 4.375 10.9375Z" fill="#007AFF"/>
</g>
<defs>
<clipPath id="clip0_0_186">
<rect width="15" height="15" fill="white"/>
</clipPath>
</defs>
</svg>