<svg width="32" height="23" viewBox="0 0 32 23" fill="none" xmlns="http://www.w3.org/2000/svg">
<path d="M19.9364 10.4878C21.0947 15.9268 17.621 21.2699 12.1763 22.425C6.73164 23.5802 1.38067 20.1082 0.222608 14.6702C-0.935457 9.23215 2.53915 3.88781 7.98274 2.73291C13.4263 1.57801 18.7784 5.04972 19.9364 10.4878Z" fill="white" fill-opacity="0.3"/>
<path d="M19.8209 0.221505C17.6103 0.690503 15.7318 1.85778 14.3487 3.43454L14.3568 3.43383C14.7467 3.6773 15.1503 3.82124 15.502 4.12216L13.458 4.58977C13.2056 4.98193 12.9878 5.39654 12.7897 5.82141L16.4063 5.05413C16.7516 5.32557 17.067 5.55821 17.3753 5.8735L12.3429 6.94117C12.2261 7.29734 12.1249 7.65944 12.0481 8.02968L18.1573 6.73357C18.389 7.03737 18.5862 7.26211 18.7837 7.59381L11.8886 9.05665C11.8516 9.4196 11.8319 9.78698 11.8363 10.1565L19.2944 8.5742C19.4399 8.89942 19.5631 9.20252 19.67 9.51541L11.8964 11.1646C11.9328 11.4955 11.9861 11.8279 12.0568 12.1597L19.9358 10.4881C20.01 10.8367 20.0541 11.1649 20.0854 11.4856L12.3158 13.1339C12.4204 13.4606 12.5395 13.778 12.6734 14.0872L20.1195 12.5074C20.1106 12.8428 20.0901 13.1825 20.0496 13.539L13.132 15.0066C13.3082 15.3212 13.5051 15.6211 13.7119 15.9106L19.835 14.6115C19.7417 15.0059 19.6105 15.3332 19.47 15.7139L14.4208 16.7851C14.6934 17.0875 14.9833 17.3697 15.2889 17.6342L18.9328 16.9176C18.7022 17.3545 18.3525 17.6623 18.0598 18.064C18.0828 18.0756 17.4806 18.1849 16.2983 18.4162C18.4842 19.8831 21.2349 20.5034 24.0144 19.9138C29.46 18.7584 32.9355 13.4138 31.7774 7.97586C30.6194 2.53794 25.2674 -0.934011 19.8209 0.221505Z" fill="white" fill-opacity="0.4"/>
</svg>