<svg width="16" height="16" viewBox="0 0 16 16" fill="none" xmlns="http://www.w3.org/2000/svg">
<path fill-rule="evenodd" clip-rule="evenodd" d="M8.37501 3.33301C8.37501 3.1259 8.20711 2.95801 8.00001 2.95801C7.7929 2.95801 7.62501 3.1259 7.62501 3.33301V7.62463H3.33334C3.12624 7.62463 2.95834 7.79253 2.95834 7.99963C2.95834 8.20674 3.12624 8.37463 3.33334 8.37463H7.62501V12.6663C7.62501 12.8734 7.7929 13.0413 8.00001 13.0413C8.20711 13.0413 8.37501 12.8734 8.37501 12.6663V8.37463H12.6667C12.8738 8.37463 13.0417 8.20674 13.0417 7.99963C13.0417 7.79253 12.8738 7.62463 12.6667 7.62463H8.37501V3.33301Z" fill="black"/>
</svg>