<svg width="14" height="14" viewBox="0 0 14 14" fill="none" xmlns="http://www.w3.org/2000/svg">
<path d="M3.94335 12.8332H10.0567C11.6667 12.8332 12.3084 11.8473 12.3842 10.6457L12.6875 5.82734C12.7692 4.56734 11.7659 3.49984 10.5 3.49984C10.1442 3.49984 9.81752 3.29567 9.65418 2.98067L9.23418 2.13484C8.96585 1.604 8.26585 1.1665 7.67085 1.1665H6.33502C5.73418 1.1665 5.03418 1.604 4.76585 2.13484L4.34585 2.98067C4.18252 3.29567 3.85585 3.49984 3.50002 3.49984C2.23418 3.49984 1.23085 4.56734 1.31252 5.82734L1.61585 10.6457C1.68585 11.8473 2.33335 12.8332 3.94335 12.8332Z" stroke="black" stroke-linecap="round" stroke-linejoin="round"/>
<path d="M6.125 4.6665H7.875" stroke="black" stroke-linecap="round" stroke-linejoin="round"/>
<path d="M7.00002 10.5002C8.04419 10.5002 8.89585 9.6485 8.89585 8.60433C8.89585 7.56016 8.04419 6.7085 7.00002 6.7085C5.95585 6.7085 5.10419 7.56016 5.10419 8.60433C5.10419 9.6485 5.95585 10.5002 7.00002 10.5002Z" stroke="black" stroke-linecap="round" stroke-linejoin="round"/>
</svg>