<svg width="24" height="24" viewBox="0 0 24 24" fill="none" xmlns="http://www.w3.org/2000/svg">
<path d="M24 12.2699C24 11.4799 23.9284 10.7299 23.8058 9.99995H12.2606V14.5099H18.871C18.5747 15.9899 17.7063 17.2399 16.4189 18.0899V21.0898H20.3627C22.6717 18.9999 24 15.9199 24 12.2699Z" fill="#4285F4"/>
<path d="M12.2606 23.9999C15.5709 23.9999 18.3397 22.9199 20.3627 21.0899L16.4189 18.0899C15.3155 18.8099 13.9157 19.2499 12.2606 19.2499C9.06264 19.2499 6.35512 17.1399 5.3845 14.29H1.31811V17.3799C3.33087 21.2999 7.46878 23.9999 12.2606 23.9999Z" fill="#34A853"/>
<path d="M5.38439 14.29C5.12896 13.57 4.99614 12.8 4.99614 12C4.99614 11.2 5.13918 10.43 5.38439 9.71005V6.62008H1.318C0.480201 8.24007 0 10.06 0 12C0 13.94 0.480201 15.76 1.318 17.38L5.38439 14.29Z" fill="#FBBC05"/>
<path d="M12.2606 4.74995C14.069 4.74995 15.6833 5.35995 16.9604 6.54993L20.4547 3.12997C18.3397 1.18999 15.5709 0 12.2606 0C7.46878 0 3.33087 2.69997 1.31811 6.61993L5.3845 9.7099C6.35512 6.85993 9.06264 4.74995 12.2606 4.74995Z" fill="#EA4335"/>
</svg>