<svg width="128" height="125" viewBox="0 0 128 125" fill="none" xmlns="http://www.w3.org/2000/svg">
  <circle cx="113.865" cy="111.509" r="2.31764" fill="black" stroke="black" stroke-width="0.0763804"/>
  <path d="M127.93 18.4541C127.93 20.8006 126.028 22.7029 123.681 22.7029C121.334 22.7029 119.432 20.8006 119.432 18.4541C119.432 16.1075 121.334 14.2052 123.681 14.2052C126.028 14.2052 127.93 16.1075 127.93 18.4541Z" fill="black" stroke="black" stroke-width="0.140031"/>
  <circle cx="15.3129" cy="6.67485" r="6.56664" fill="black" stroke="black" stroke-width="0.216411"/>
  <path d="M10.9364 92.27C10.9364 94.1899 9.38003 95.7463 7.46011 95.7463C5.54019 95.7463 3.98379 94.1899 3.98379 92.27C3.98379 90.3501 5.54019 88.7937 7.46011 88.7937C9.38003 88.7937 10.9364 90.3501 10.9364 92.27Z" fill="black" stroke="black" stroke-width="0.114571"/>
  <circle cx="42.4049" cy="122.503" r="2.31764" fill="black" stroke="black" stroke-width="0.0763804"/>
  <path d="M85.5759 118.184C85.5759 118.824 85.0571 119.343 84.4171 119.343C83.7772 119.343 83.2583 118.824 83.2583 118.184C83.2583 117.544 83.7772 117.025 84.4171 117.025C85.0571 117.025 85.5759 117.544 85.5759 118.184Z" fill="black" stroke="black" stroke-width="0.0381902"/>
  <path d="M119.343 74.994C119.343 75.634 118.824 76.1528 118.184 76.1528C117.544 76.1528 117.025 75.634 117.025 74.994C117.025 74.354 117.544 73.8352 118.184 73.8352C118.824 73.8352 119.343 74.354 119.343 74.994Z" fill="black" stroke="black" stroke-width="0.0381902"/>
  <path d="M75.3674 2.74858C75.3674 3.38856 74.8486 3.90736 74.2086 3.90736C73.5687 3.90736 73.0499 3.38856 73.0499 2.74858C73.0499 2.10861 73.5687 1.58981 74.2086 1.58981C74.8486 1.58981 75.3674 2.10861 75.3674 2.74858Z" fill="black" stroke="black" stroke-width="0.0381902"/>
  <path d="M2.33669 51.4354C2.33669 52.0754 1.81789 52.5942 1.17791 52.5942C0.537941 52.5942 0.0191411 52.0754 0.0191411 51.4354C0.0191411 50.7955 0.537941 50.2767 1.17791 50.2767C1.81789 50.2767 2.33669 50.7955 2.33669 51.4354Z" fill="black" stroke="black" stroke-width="0.0381902"/>
  <circle cx="66.7483" cy="62.0367" r="46.3528" fill="black" stroke="black" stroke-width="1.52761"/>
  <rect x="50.2361" y="45.5242" width="33.0245" height="33.0245" rx="14.5123" fill="white" stroke="black" stroke-width="1.52761"/>
  <path d="M73.0305 57.4667L64.3925 66.0092L60.4661 62.1262" stroke="black" stroke-width="6.98335" stroke-linecap="round" stroke-linejoin="round"/>
</svg>