<svg width="34" height="32" viewBox="0 0 34 32" fill="none" xmlns="http://www.w3.org/2000/svg">
<path d="M3.33332 10.6667H28.6667M7.99999 16H13.3333M11.2 28H20.8C23.7869 28 25.2804 28 26.4213 27.4187C27.4248 26.9074 28.2407 26.0915 28.752 25.088C29.3333 23.9471 29.3333 22.4536 29.3333 19.4667V12.5333C29.3333 9.54639 29.3333 8.05291 28.752 6.91205C28.2407 5.90852 27.4248 5.09262 26.4213 4.5813C25.2804 4 23.7869 4 20.8 4H11.2C8.21304 4 6.71957 4 5.57871 4.5813C4.57518 5.09262 3.75928 5.90852 3.24796 6.91205C2.66666 8.05291 2.66666 9.54639 2.66666 12.5333V19.4667C2.66666 22.4536 2.66666 23.9471 3.24796 25.088C3.75928 26.0915 4.57518 26.9074 5.57871 27.4187C6.71957 28 8.21304 28 11.2 28Z" stroke="white" stroke-width="2" stroke-linecap="round" stroke-linejoin="round"/>
</svg>