<svg width="24" height="23" viewBox="0 0 24 23" fill="none" xmlns="http://www.w3.org/2000/svg">
<path d="M12.8162 5.56885C13.3914 6.13067 13.3914 7.04147 12.8162 7.60234C12.2409 8.1632 11.3084 8.16416 10.7341 7.60234C10.1599 7.04052 10.1589 6.12971 10.7341 5.56885C11.3084 5.00703 12.2409 5.00703 12.8162 5.56885" stroke="black" stroke-width="1.3" stroke-linecap="round" stroke-linejoin="round"/>
<path d="M16.7741 6.70218V6.70218C16.7741 8.02908 16.1704 9.28598 15.1279 10.1354L13.4886 11.47C12.8348 12.021 12.3469 12.701 12.078 13.49L11.7746 14.3759L11.4723 13.4891C11.2033 12.701 10.7145 12.0011 10.0617 11.469L8.42237 10.1345C7.37791 9.28502 6.77519 8.02812 6.77519 6.70218V6.70218V6.72711C6.77519 3.68024 9.35787 1.91233 11.7746 1.91233C14.1914 1.91233 16.7741 3.68024 16.7741 6.72711" stroke="black" stroke-width="1.3" stroke-linecap="round" stroke-linejoin="round"/>
<path d="M10.5967 20.1284L11.7747 18.978L10.5967 17.8275" stroke="black" stroke-width="1.3" stroke-linecap="round" stroke-linejoin="round"/>
<path d="M17.6645 13.1335C19.4668 13.7462 20.6094 14.6311 20.6094 15.6224C20.6094 17.0337 18.3124 18.2398 15.0632 18.7354" stroke="black" stroke-width="1.3" stroke-linecap="round" stroke-linejoin="round"/>
<path d="M5.88487 13.1335C4.0826 13.7462 2.93998 14.6311 2.93998 15.6224C2.93998 17.4757 6.89497 18.978 11.7747 18.978" stroke="black" stroke-width="1.3" stroke-linecap="round" stroke-linejoin="round"/>
</svg>