<svg width="15" height="15" viewBox="0 0 15 15" fill="none" xmlns="http://www.w3.org/2000/svg">
<g clip-path="url(#clip0_0_367)">
<path d="M9.0625 1.25019C9.43165 1.25006 9.79484 1.34336 10.1182 1.52139C10.4416 1.69943 10.7147 1.9564 10.912 2.26839C11.1093 2.58038 11.2245 2.93724 11.2468 3.30572C11.269 3.6742 11.1977 4.04233 11.0394 4.37581L13.125 4.37519C13.2908 4.37519 13.4497 4.44103 13.5669 4.55824C13.6842 4.67545 13.75 4.83443 13.75 5.00019V7.50019C13.75 7.66595 13.6842 7.82492 13.5669 7.94213C13.4497 8.05934 13.2908 8.12519 13.125 8.12519H12.5V13.1252C12.5 13.2909 12.4342 13.4499 12.3169 13.5671C12.1997 13.6843 12.0408 13.7502 11.875 13.7502H3.125C2.95924 13.7502 2.80027 13.6843 2.68306 13.5671C2.56585 13.4499 2.5 13.2909 2.5 13.1252V8.12519H1.875C1.70924 8.12519 1.55027 8.05934 1.43306 7.94213C1.31585 7.82492 1.25 7.66595 1.25 7.50019V5.00019C1.25 4.83443 1.31585 4.67545 1.43306 4.55824C1.55027 4.44103 1.70924 4.37519 1.875 4.37519L3.96062 4.37581C3.73797 3.90811 3.68852 3.37656 3.82106 2.87581C3.95361 2.37506 4.25955 1.93759 4.68444 1.64128C5.10932 1.34497 5.62556 1.20906 6.14127 1.25773C6.65698 1.3064 7.13868 1.5365 7.50063 1.90706C7.70377 1.69864 7.94668 1.53311 8.21497 1.42028C8.48325 1.30744 8.77145 1.24961 9.0625 1.25019ZM11.25 8.12519H3.75V12.5002H11.25V8.12519ZM12.5 5.62519H2.5V6.87519H12.5V5.62519ZM5.9375 2.50019C5.69674 2.5003 5.46525 2.59305 5.29101 2.75919C5.11676 2.92534 5.01312 3.15215 5.00155 3.39263C4.98998 3.63311 5.07137 3.86883 5.22886 4.05094C5.38635 4.23304 5.60786 4.34758 5.8475 4.37081L5.9375 4.37519H6.875V3.43769C6.87499 3.20463 6.78818 2.97994 6.63149 2.80742C6.4748 2.63491 6.25948 2.52693 6.0275 2.50456L5.9375 2.50019ZM9.0625 2.50019L8.9725 2.50456C8.75586 2.52532 8.55319 2.6208 8.39924 2.77463C8.2453 2.92846 8.14967 3.13106 8.12875 3.34769L8.125 3.43769V4.37519H9.0625L9.1525 4.37081C9.38439 4.34833 9.5996 4.24031 9.7562 4.0678C9.91279 3.8953 9.99953 3.67066 9.99953 3.43769C9.99953 3.20471 9.91279 2.98007 9.7562 2.80757C9.5996 2.63506 9.38439 2.52704 9.1525 2.50456L9.0625 2.50019Z" fill="white" fill-opacity="0.2"/>
</g>
<defs>
<clipPath id="clip0_0_367">
<rect width="15" height="15" fill="white"/>
</clipPath>
</defs>
</svg>