<svg width="20" height="20" viewBox="0 0 20 20" fill="none" xmlns="http://www.w3.org/2000/svg">
<path fill-rule="evenodd" clip-rule="evenodd" d="M10 1.66699C5.39775 1.66699 1.66669 5.39805 1.66669 10.0003C1.66669 14.6026 5.39775 18.3337 10 18.3337C14.6023 18.3337 18.3334 14.6026 18.3334 10.0003C18.3334 5.39805 14.6023 1.66699 10 1.66699ZM13.6121 8.59124C13.6787 8.51521 13.7293 8.42664 13.7611 8.33076C13.7929 8.23487 13.8051 8.13359 13.7972 8.03289C13.7893 7.93219 13.7613 7.83409 13.7149 7.74436C13.6684 7.65464 13.6046 7.5751 13.527 7.51043C13.4493 7.44576 13.3596 7.39727 13.263 7.3678C13.1664 7.33833 13.0648 7.32848 12.9643 7.33883C12.8638 7.34918 12.7664 7.37953 12.6779 7.42808C12.5893 7.47663 12.5113 7.54241 12.4485 7.62154L9.19093 11.5299L7.50532 9.84351C7.36244 9.70551 7.17108 9.62915 6.97244 9.63088C6.77381 9.6326 6.5838 9.71228 6.44334 9.85274C6.30288 9.9932 6.22321 10.1832 6.22148 10.3818C6.21975 10.5805 6.29611 10.7718 6.43411 10.9147L8.70684 13.1874C8.78128 13.2618 8.8704 13.3199 8.96852 13.3579C9.06664 13.396 9.17161 13.4132 9.27674 13.4084C9.38187 13.4036 9.48485 13.377 9.57912 13.3302C9.67339 13.2834 9.75688 13.2175 9.82426 13.1367L13.6121 8.59124Z" fill="black"/>
</svg>