<svg xmlns="http://www.w3.org/2000/svg" width="20px" height="20px" viewBox="0 0 64 64" fill="none">
    <path fill-rule="evenodd" clip-rule="evenodd"
        d="M12 10C10.8954 10 10 10.8954 10 12V52C10 53.1045 10.8954 54 12 54H52C53.1045 54 54 53.1045 54 52V12C54 10.8954 53.1045 10 52 10H12ZM6 12C6 8.68629 8.68629 6 12 6H52C55.3136 6 58 8.68629 58 12V52C58 55.3136 55.3136 58 52 58H12C8.68629 58 6 55.3136 6 52V12Z"
        fill="var(--color--black-svg)"></path>
    <path fill-rule="evenodd" clip-rule="evenodd"
        d="M42.3333 6C43.4379 6 44.3333 6.89544 44.3333 8V56C44.3333 57.1045 43.4379 58 42.3333 58C41.2288 58 40.3333 57.1045 40.3333 56V8C40.3333 6.89544 41.2288 6 42.3333 6Z"
        fill="var(--color--black-svg)"></path>
    <path fill-rule="evenodd" clip-rule="evenodd"
        d="M15.3333 56C15.3333 54.8955 16.2288 54 17.3333 54H25.3333C26.4379 54 27.3333 54.8955 27.3333 56C27.3333 57.1045 26.4379 58 25.3333 58H17.3333C16.2288 58 15.3333 57.1045 15.3333 56Z"
        fill="var(--color--black-svg)"></path>
    <path fill-rule="evenodd" clip-rule="evenodd"
        d="M15.3333 8C15.3333 6.89544 16.2288 6 17.3333 6H25.3333C26.4379 6 27.3333 6.89544 27.3333 8C27.3333 9.10456 26.4379 10 25.3333 10H17.3333C16.2288 10 15.3333 9.10456 15.3333 8Z"
        fill="var(--color--black-svg)"></path>
</svg>