<svg width="100" height="74" viewBox="0 0 100 74" fill="none" xmlns="http://www.w3.org/2000/svg">
    <rect y="74" width="74" height="100" rx="8" transform="rotate(-90 0 74)" fill="#F4F4F4"/>
    <circle cx="34" cy="37" r="24" transform="rotate(-90 34 37)" fill="#FAFAFB"/>
    <path d="M48.9947 37.2912C48.9918 39.1256 48.4451 40.918 47.4237 42.4417C46.4024 43.9655 44.9522 45.1522 43.2565 45.8519C41.5608 46.5516 39.6957 46.7329 37.897 46.3728C36.0983 46.0127 34.4468 45.1274 33.1511 43.8288C31.8555 42.5303 30.9739 40.8767 30.6178 39.0772C30.2618 37.2777 30.4472 35.413 31.1507 33.7189C31.8543 32.0248 33.0442 30.5773 34.5703 29.5593C36.0963 28.5414 37.8899 27.9988 39.7243 28C40.9435 28.0007 42.1507 28.2416 43.2769 28.7089C44.403 29.1763 45.426 29.8609 46.2875 30.7237C47.149 31.5866 47.832 32.6107 48.2976 33.7375C48.7631 34.8644 49.0021 36.072 49.0009 37.2912H48.9947Z" fill="#F79F1A"/>
    <path d="M37.5533 37.2912C37.5504 39.1256 37.0037 40.918 35.9823 42.4417C34.961 43.9655 33.5108 45.1522 31.8151 45.8519C30.1194 46.5516 28.2543 46.7329 26.4556 46.3728C24.6569 46.0127 23.0054 45.1274 21.7097 43.8288C20.4141 42.5303 19.5325 40.8767 19.1764 39.0772C18.8204 37.2777 19.0058 35.413 19.7093 33.7189C20.4128 32.0248 21.6028 30.5773 23.1289 29.5593C24.6549 28.5414 26.4485 27.9988 28.2829 28C29.5021 28.0007 30.7093 28.2416 31.8355 28.7089C32.9616 29.1763 33.9846 29.8609 34.8461 30.7237C35.7076 31.5866 36.3906 32.6107 36.8562 33.7375C37.3217 34.8644 37.5607 36.072 37.5595 37.2912H37.5533Z" fill="#EA001B"/>
    <path d="M33.9994 29.9766C32.8925 30.8474 31.9976 31.9581 31.3823 33.2251C30.767 34.492 30.4473 35.8821 30.4473 37.2905C30.4473 38.699 30.767 40.089 31.3823 41.356C31.9976 42.6229 32.8925 43.7336 33.9994 44.6045C35.108 43.7348 36.0041 42.6242 36.6197 41.3568C37.2354 40.0894 37.5544 38.6985 37.5527 37.2895C37.5546 35.8807 37.2356 34.4901 36.6199 33.223C36.0043 31.9559 35.1081 30.8457 33.9994 29.9766V29.9766Z" fill="#FF5F01"/>
    <circle cx="80" cy="37" r="9.5" transform="rotate(-90 80 37)" stroke="#E2E0EC"/>
</svg>