<svg width="20" height="20" viewBox="0 0 20 20" fill="none" xmlns="http://www.w3.org/2000/svg">
<path d="M17.3845 4.28541C16.9772 3.8779 16.4936 3.55463 15.9613 3.33408C15.429 3.11352 14.8585 3 14.2823 3C13.7061 3 13.1356 3.11352 12.6033 3.33408C12.071 3.55463 11.5874 3.8779 11.1801 4.28541L10.3347 5.13075L9.48939 4.28541C8.66662 3.46265 7.55072 3.00043 6.38716 3.00043C5.22359 3.00043 4.10769 3.46265 3.28493 4.28541C2.46216 5.10818 1.99994 6.22408 1.99994 7.38764C1.99994 8.55121 2.46216 9.66711 3.28493 10.4899L4.13026 11.3352L10.3347 17.5397L16.5392 11.3352L17.3845 10.4899C17.792 10.0826 18.1153 9.59893 18.3359 9.06664C18.5564 8.53435 18.6699 7.96382 18.6699 7.38764C18.6699 6.81147 18.5564 6.24094 18.3359 5.70865C18.1153 5.17636 17.792 4.69273 17.3845 4.28541V4.28541Z" stroke="black" stroke-width="1.4" stroke-linecap="round" stroke-linejoin="round"/>
</svg>