<svg width="40" height="40" viewBox="0 0 40 40" fill="none" xmlns="http://www.w3.org/2000/svg">
<rect width="40" height="40" rx="12" fill="#F2F2F2"/>
<path d="M16.8155 29.3221L17.1622 27.1204L16.39 27.1025H12.7031L15.2653 10.8563C15.273 10.8067 15.2982 10.7614 15.3364 10.7288C15.3746 10.6962 15.4232 10.6784 15.4734 10.6787H21.6901C23.7539 10.6787 25.1782 11.1082 25.9218 11.9558C26.2704 12.3535 26.4924 12.769 26.5998 13.2263C26.7125 13.7062 26.7145 14.2795 26.6044 14.9787L26.5965 15.0297V15.4777L26.9451 15.6752C27.2112 15.8101 27.4504 15.9925 27.6509 16.2134C27.9492 16.5534 28.142 16.9855 28.2236 17.4978C28.3077 18.0247 28.2799 18.6517 28.142 19.3615C27.983 20.178 27.7258 20.8891 27.3785 21.471C27.0721 21.9923 26.6601 22.4438 26.169 22.7966C25.7077 23.124 25.1596 23.3725 24.54 23.5315C23.9395 23.688 23.2549 23.7668 22.504 23.7668H22.0202C21.6742 23.7668 21.3382 23.8914 21.0744 24.1148C20.811 24.3405 20.6363 24.6524 20.5813 24.9949L20.5449 25.1931L19.9325 29.0735L19.9046 29.216C19.8973 29.2611 19.8848 29.2836 19.8662 29.2989C19.8482 29.3136 19.8258 29.3217 19.8026 29.3221H16.8155Z" fill="#253B80"/>
<path d="M27.2754 15.0811C27.2568 15.1997 27.2356 15.321 27.2118 15.4456C26.3919 19.6547 23.5872 21.1088 20.005 21.1088H18.1811C17.743 21.1088 17.3738 21.4269 17.3056 21.8591L16.3717 27.7815L16.1073 29.4602C16.0968 29.5268 16.1008 29.5949 16.1191 29.6598C16.1374 29.7247 16.1695 29.7848 16.2133 29.8361C16.2571 29.8874 16.3114 29.9285 16.3727 29.9568C16.4339 29.985 16.5005 29.9997 16.5679 29.9997H19.8028C20.1859 29.9997 20.5113 29.7213 20.5716 29.3436L20.6034 29.1792L21.2125 25.314L21.2516 25.1019C21.3113 24.7228 21.6373 24.4445 22.0204 24.4445H22.5042C25.6384 24.4445 28.0919 23.172 28.809 19.4897C29.1086 17.9515 28.9535 16.667 28.1608 15.7637C27.9096 15.4843 27.6096 15.2529 27.2754 15.0811Z" fill="white"/>
<path d="M26.4179 14.7398C26.1561 14.6641 25.8898 14.605 25.6206 14.5629C25.0886 14.4811 24.551 14.4419 24.0128 14.4455H19.1402C18.9547 14.4454 18.7754 14.5116 18.6345 14.6322C18.4936 14.7528 18.4005 14.9198 18.372 15.103L17.3355 21.6683L17.3057 21.8598C17.338 21.6508 17.444 21.4603 17.6046 21.3227C17.7652 21.185 17.9697 21.1095 18.1812 21.1096H20.0051C23.5873 21.1096 26.3921 19.6548 27.2119 15.4463C27.2364 15.3217 27.257 15.2004 27.2755 15.0818C27.0592 14.9683 26.8337 14.8732 26.6015 14.7975C26.5406 14.7773 26.4794 14.758 26.4179 14.7398Z" fill="#222D65"/>
<path d="M18.3717 15.1026C18.3999 14.9193 18.493 14.7522 18.6339 14.6317C18.7749 14.5112 18.9544 14.4452 19.1398 14.4458H24.0124C24.5897 14.4458 25.1285 14.4835 25.6202 14.5631C25.953 14.6154 26.2812 14.6936 26.6018 14.797C26.8437 14.8772 27.0684 14.972 27.2758 15.0814C27.5197 13.5259 27.2738 12.4668 26.4328 11.5078C25.5056 10.452 23.8321 10 21.6908 10H15.4741C15.0367 10 14.6636 10.3181 14.596 10.7509L12.0066 27.1641C11.9945 27.2403 11.9991 27.3182 12.02 27.3924C12.0409 27.4667 12.0777 27.5355 12.1278 27.5942C12.1778 27.6529 12.24 27.7001 12.3101 27.7325C12.3801 27.7648 12.4563 27.7817 12.5335 27.7818H16.3715L17.3351 21.6678L18.3717 15.1026Z" fill="#253B80"/>
</svg>