<svg width="28" height="28" viewBox="0 0 28 28" fill="none" xmlns="http://www.w3.org/2000/svg">
<path d="M2.33331 10.4997V7.58301C2.33331 4.67801 4.67831 2.33301 7.58331 2.33301H10.5" stroke="#FAFAFB" stroke-width="1.5" stroke-linecap="round" stroke-linejoin="round"/>
<path d="M17.5 2.33301H20.4167C23.3217 2.33301 25.6667 4.67801 25.6667 7.58301V10.4997" stroke="#FAFAFB" stroke-width="1.5" stroke-linecap="round" stroke-linejoin="round"/>
<path d="M25.6667 18.667V20.417C25.6667 23.322 23.3217 25.667 20.4167 25.667H18.6667" stroke="#FAFAFB" stroke-width="1.5" stroke-linecap="round" stroke-linejoin="round"/>
<path d="M10.5 25.6667H7.58331C4.67831 25.6667 2.33331 23.3217 2.33331 20.4167V17.5" stroke="#FAFAFB" stroke-width="1.5" stroke-linecap="round" stroke-linejoin="round"/>
<path d="M19.8334 11.083V16.9163C19.8334 19.2497 18.6667 20.4163 16.3334 20.4163H11.6667C9.33335 20.4163 8.16669 19.2497 8.16669 16.9163V11.083C8.16669 8.74967 9.33335 7.58301 11.6667 7.58301H16.3334C18.6667 7.58301 19.8334 8.74967 19.8334 11.083Z" stroke="#FAFAFB" stroke-width="1.5" stroke-linecap="round" stroke-linejoin="round"/>
<path d="M22.1666 14H5.83331" stroke="#FAFAFB" stroke-width="1.5" stroke-linecap="round" stroke-linejoin="round"/>
</svg>