<svg width="20" height="20" viewBox="0 0 20 20" fill="none" xmlns="http://www.w3.org/2000/svg">
<circle cx="10" cy="10" r="10" fill="black"/>
<path d="M15.1447 6.14352L8.23578 12.8822C8.18933 12.9277 8.13413 12.9638 8.07334 12.9884C8.01255 13.0131 7.94738 13.0257 7.88156 13.0257C7.81574 13.0257 7.75056 13.0131 7.68978 12.9884C7.62899 12.9638 7.57379 12.9277 7.52734 12.8822L4.85557 10.2736C4.80912 10.2282 4.75392 10.1921 4.69313 10.1674C4.63235 10.1428 4.56717 10.1301 4.50135 10.1301C4.43553 10.1301 4.37036 10.1428 4.30957 10.1674C4.24878 10.1921 4.19358 10.2282 4.14713 10.2736C4.1005 10.319 4.06349 10.3728 4.03825 10.4321C4.013 10.4914 4 10.555 4 10.6192C4 10.6834 4.013 10.7469 4.03825 10.8062C4.06349 10.8655 4.1005 10.9194 4.14713 10.9647L6.8199 13.5713C7.10185 13.8458 7.48394 14 7.88231 14C8.28068 14 8.66277 13.8458 8.94472 13.5713L15.8531 6.83407C15.8997 6.78877 15.9366 6.73495 15.9618 6.6757C15.987 6.61645 16 6.55294 16 6.48879C16 6.42465 15.987 6.36113 15.9618 6.30188C15.9366 6.24263 15.8997 6.18882 15.8531 6.14352C15.8067 6.09803 15.7515 6.06193 15.6907 6.03731C15.6299 6.01268 15.5647 6 15.4989 6C15.4331 6 15.3679 6.01268 15.3071 6.03731C15.2463 6.06193 15.1911 6.09803 15.1447 6.14352Z" fill="#FAFAFB"/>
</svg>