<svg width="100" height="74" viewBox="0 0 100 74" fill="none" xmlns="http://www.w3.org/2000/svg">
    <rect y="74" width="74" height="100" rx="8" transform="rotate(-90 0 74)" fill="#F4F4F4"/>
    <circle cx="80" cy="37" r="9.5" transform="rotate(-90 80 37)" stroke="#E2E0EC"/>
    <circle cx="34" cy="37" r="24" transform="rotate(-90 34 37)" fill="#FAFAFB"/>
    <path d="M41.941 31.5312C41.941 31.6489 41.941 31.7666 41.8234 31.8842C40.8822 36.5902 37.8233 38.1196 33.8233 38.1196H31.8232C31.3526 38.1196 30.882 38.4725 30.882 38.9431L29.8232 45.5315L29.5879 47.4138C29.5879 47.7668 29.8232 48.0021 30.0585 48.0021H33.7056C34.1762 48.0021 34.5291 47.6491 34.5291 47.2962V47.0609L35.235 42.8255V42.5902C35.3527 42.1196 35.7056 41.8843 36.0586 41.8843H36.6468C40.1763 41.8843 42.8822 40.4726 43.5881 36.3549C43.941 34.5901 43.7058 33.1783 42.8822 32.2371C42.6469 32.0018 42.294 31.7665 41.941 31.5312Z" fill="#2199D6"/>
    <path d="M41.0006 31.1772C40.8829 31.1772 40.7653 31.0595 40.53 31.0595C40.4124 31.0595 40.1771 30.9419 40.0594 30.9419C39.4712 30.8242 38.8829 30.8242 38.2947 30.8242H32.8828C32.7652 30.8242 32.6475 30.8242 32.5299 30.9419C32.2946 31.0595 32.0593 31.2948 32.0593 31.5301L30.8828 38.8243V39.0596C31.0005 38.589 31.3534 38.2361 31.824 38.2361H33.824C37.8241 38.2361 40.8829 36.589 41.8241 32.0007C41.8241 31.8831 41.8241 31.7654 41.9418 31.6478C41.7065 31.5301 41.4712 31.4125 41.2359 31.2948C41.1182 31.1772 41.0006 31.1772 41.0006 31.1772Z" fill="#252C5E"/>
    <path d="M32.0589 31.5295C32.0589 31.2942 32.2942 31.0589 32.5295 30.9412C32.6472 30.9412 32.7648 30.8236 32.8825 30.8236H38.2943C38.8825 30.8236 39.5884 30.8236 40.059 30.9412C40.1767 30.9412 40.412 30.9412 40.5296 31.0589C40.6473 31.0589 40.7649 31.1765 41.0002 31.1765C41.1179 31.1765 41.1179 31.1765 41.2355 31.2942C41.4708 31.4118 41.7061 31.5295 41.9414 31.6471C42.1767 29.8824 41.9414 28.7059 41.0002 27.6471C39.9414 26.4706 38.059 26 35.706 26H28.7648C28.2942 26 27.8236 26.3529 27.8236 26.8235L25 44.9415C25 45.2944 25.2353 45.6473 25.5882 45.6473H29.8236L30.8824 38.8237L32.0589 31.5295Z" fill="#263577"/>
</svg>